<svg width="19" height="14" viewBox="0 0 19 14" fill="none" xmlns="http://www.w3.org/2000/svg">
<path d="M12.6996 8.4C12.6208 8.40009 12.5427 8.38461 12.4699 8.35444C12.3971 8.32428 12.331 8.28002 12.2753 8.22421L9.49956 5.44844L6.72378 8.22421C6.61113 8.33605 6.45875 8.39868 6.30002 8.39839C6.14128 8.3981 5.98913 8.33491 5.87689 8.22267C5.76465 8.11043 5.70146 7.95828 5.70117 7.79954C5.70088 7.64081 5.76351 7.48843 5.87535 7.37578L9.07535 4.17578C9.13105 4.12005 9.19718 4.07585 9.26997 4.04569C9.34275 4.01552 9.42077 4 9.49956 4C9.57835 4 9.65637 4.01552 9.72916 4.04569C9.80195 4.07585 9.86808 4.12005 9.92378 4.17578L13.1238 7.37578C13.2077 7.45969 13.2648 7.56659 13.2879 7.68297C13.3111 7.79934 13.2992 7.91997 13.2538 8.02959C13.2084 8.13922 13.1315 8.23292 13.0329 8.29885C12.9342 8.36478 12.8182 8.39998 12.6996 8.4Z" fill="currentColor"/>
<path d="M16.7004 14H13.5004C13.3413 14 13.1886 13.9368 13.0761 13.8243C12.9636 13.7117 12.9004 13.5591 12.9004 13.4C12.9004 13.2409 12.9636 13.0883 13.0761 12.9757C13.1886 12.8632 13.3413 12.8 13.5004 12.8H16.7004C16.7534 12.7999 16.8042 12.7788 16.8417 12.7413C16.8792 12.7038 16.9003 12.653 16.9004 12.6V1.4C16.9003 1.34699 16.8792 1.29618 16.8417 1.25869C16.8042 1.22121 16.7534 1.2001 16.7004 1.2H2.30039C2.24738 1.2001 2.19657 1.22121 2.15908 1.25869C2.1216 1.29618 2.10049 1.34699 2.10039 1.4V12.6C2.10049 12.653 2.1216 12.7038 2.15908 12.7413C2.19657 12.7788 2.24738 12.7999 2.30039 12.8H5.50039C5.65952 12.8 5.81213 12.8632 5.92465 12.9757C6.03718 13.0883 6.10039 13.2409 6.10039 13.4C6.10039 13.5591 6.03718 13.7117 5.92465 13.8243C5.81213 13.9368 5.65952 14 5.50039 14H2.30039C1.92923 13.9995 1.57339 13.8519 1.31094 13.5895C1.04849 13.327 0.900842 12.9712 0.900391 12.6V1.4C0.900842 1.02884 1.04849 0.673002 1.31094 0.410549C1.57339 0.148095 1.92923 0.000450938 2.30039 0H16.7004C17.0716 0.000450938 17.4274 0.148095 17.6898 0.410549C17.9523 0.673002 18.0999 1.02884 18.1004 1.4V12.6C18.0999 12.9712 17.9523 13.327 17.6898 13.5895C17.4274 13.8519 17.0716 13.9995 16.7004 14Z" fill="currentColor"/>
<path d="M9.50039 14C9.34127 14 9.18869 13.9367 9.07617 13.8242C8.96366 13.7117 8.90043 13.5591 8.90039 13.4V4.6C8.90039 4.44087 8.96361 4.28826 9.07613 4.17574C9.18865 4.06321 9.34126 4 9.50039 4C9.65952 4 9.81213 4.06321 9.92465 4.17574C10.0372 4.28826 10.1004 4.44087 10.1004 4.6V13.4C10.1003 13.5591 10.0371 13.7117 9.92461 13.8242C9.8121 13.9367 9.65951 14 9.50039 14Z" fill="currentColor"/>
</svg>
