<svg width="20" height="20" viewBox="0 0 20 20" fill="none" xmlns="http://www.w3.org/2000/svg">
<path d="M10 20C15.5228 20 20 15.5228 20 10C20 4.47715 15.5228 0 10 0C4.47715 0 0 4.47715 0 10C0 15.5228 4.47715 20 10 20Z" fill="url(#paint0_linear_643_3863)"/>
<path d="M9.47258 4.40591C9.62225 3.94525 10.274 3.94525 10.4236 4.40591L11.4402 7.53456C11.5071 7.74057 11.6991 7.88005 11.9157 7.88005H15.2054C15.6897 7.88005 15.8911 8.49986 15.4993 8.78456L12.8379 10.7182C12.6626 10.8455 12.5893 11.0712 12.6562 11.2772L13.6728 14.4058C13.8225 14.8665 13.2952 15.2496 12.9034 14.9649L10.242 13.0312C10.0668 12.9039 9.82946 12.9039 9.65421 13.0312L6.99282 14.9649C6.60097 15.2496 6.07373 14.8665 6.2234 14.4058L7.23996 11.2772C7.3069 11.0712 7.23357 10.8455 7.05833 10.7182L4.39694 8.78456C4.00508 8.49986 4.20647 7.88005 4.69083 7.88005H7.98049C8.1971 7.88005 8.38908 7.74057 8.45602 7.53456L9.47258 4.40591Z" fill="white"/>
<defs>
<linearGradient id="paint0_linear_643_3863" x1="2.53608" y1="3.56172" x2="24.2217" y2="22.2685" gradientUnits="userSpaceOnUse">
<stop offset="0.13" stop-color="#FF9848"/>
<stop offset="0.85" stop-color="#E66C13"/>
</linearGradient>
</defs>
</svg>
