<svg width="19" height="25" viewBox="0 0 19 25" fill="none" xmlns="http://www.w3.org/2000/svg">
<path d="M17.3531 13.1156C16.7723 12.3645 15.8958 11.8487 14.7238 11.5683C16.2163 10.807 16.8722 9.51488 16.6921 7.69175C16.6319 7.03065 16.4492 6.45769 16.1436 5.97203C15.8377 5.48627 15.425 5.09575 14.9038 4.80033C14.3831 4.50453 13.8167 4.27936 13.206 4.12412C12.5952 3.96888 11.8939 3.85616 11.1026 3.78612V0H8.78905V3.68093C8.38843 3.68093 7.77748 3.69093 6.95624 3.71098V0H4.64241V3.78612C4.31178 3.79617 3.82606 3.80128 3.18506 3.80128L0 3.78612V6.25014H1.66757C2.42882 6.25014 2.87453 6.59077 3.00472 7.27177V11.5838C3.10502 11.5838 3.18506 11.589 3.24521 11.599H3.00472V17.6385C2.92468 18.1492 2.63426 18.4048 2.13339 18.4048H0.465925L0.000105188 21.1543H3.00499C3.19532 21.1543 3.4706 21.1568 3.83133 21.1613C4.19185 21.1664 4.46217 21.1689 4.64251 21.1689V25H6.95672V21.2139C7.37728 21.2242 7.98823 21.2291 8.78952 21.2291V25H11.1031V21.1689C11.9246 21.1289 12.6532 21.0542 13.289 20.9436C13.925 20.833 14.5336 20.6605 15.1144 20.425C15.6952 20.1898 16.1809 19.8966 16.5715 19.546C16.9623 19.1958 17.285 18.7499 17.5408 18.2089C17.7959 17.6679 17.9588 17.0419 18.0287 16.3306C18.1595 14.9387 17.934 13.8669 17.3531 13.1156ZM7.00123 6.41496C7.07138 6.41496 7.26919 6.41243 7.59472 6.40738C7.9204 6.40223 8.19073 6.39728 8.40606 6.39223C8.62144 6.38728 8.91193 6.3998 9.27766 6.42985C9.64323 6.4599 9.95118 6.50005 10.2015 6.55004C10.4518 6.60004 10.7275 6.68271 11.0277 6.7979C11.3285 6.91298 11.5687 7.05328 11.7488 7.21851C11.9292 7.38375 12.0819 7.59419 12.2069 7.84962C12.3323 8.105 12.3949 8.39795 12.3949 8.72843C12.3949 9.00891 12.3499 9.26439 12.2599 9.49488C12.17 9.72521 12.0344 9.91808 11.8543 10.0733C11.6742 10.2286 11.4886 10.364 11.2982 10.479C11.1081 10.5941 10.865 10.6868 10.5696 10.7569C10.2743 10.827 10.0164 10.8821 9.79615 10.9221C9.57576 10.9622 9.30039 10.9899 8.96981 11.0048C8.63918 11.0197 8.38869 11.0299 8.21851 11.0349C8.04817 11.0398 7.81537 11.0398 7.51978 11.0349C7.22415 11.0299 7.05159 11.0273 7.00139 11.0273V6.41491L7.00123 6.41496ZM13.3192 16.6463C13.2238 16.8768 13.1012 17.0772 12.9511 17.2476C12.8007 17.4176 12.6028 17.568 12.3575 17.698C12.1123 17.8284 11.8742 17.9334 11.644 18.0136C11.4135 18.094 11.1355 18.1637 10.8102 18.224C10.4843 18.2842 10.199 18.3265 9.95339 18.3517C9.70811 18.3768 9.41526 18.3968 9.07458 18.4119C8.73416 18.4266 8.46857 18.4343 8.27834 18.4343C8.08801 18.4343 7.84757 18.4315 7.55709 18.4266C7.26645 18.422 7.08133 18.4194 7.00113 18.4194V13.341C7.08117 13.341 7.31908 13.3362 7.7148 13.3259C8.11058 13.3158 8.43342 13.3112 8.68386 13.3112C8.93424 13.3112 9.27992 13.3259 9.72079 13.3562C10.1612 13.386 10.5319 13.4309 10.8326 13.491C11.133 13.5512 11.4608 13.6437 11.8166 13.7691C12.1721 13.8942 12.4602 14.0469 12.6806 14.2272C12.901 14.4078 13.0862 14.6378 13.2364 14.9184C13.3869 15.1987 13.462 15.5193 13.462 15.88C13.462 16.1607 13.4145 16.4158 13.3192 16.6463Z" fill="white"/>
<path d="M17.3531 13.1156C16.7723 12.3645 15.8958 11.8487 14.7238 11.5683C16.2163 10.807 16.8722 9.51488 16.6921 7.69175C16.6319 7.03065 16.4492 6.45769 16.1436 5.97203C15.8377 5.48627 15.425 5.09575 14.9038 4.80033C14.3831 4.50453 13.8167 4.27936 13.206 4.12412C12.5952 3.96888 11.8939 3.85616 11.1026 3.78612V0H8.78905V3.68093C8.38843 3.68093 7.77748 3.69093 6.95624 3.71098V0H4.64241V3.78612C4.31178 3.79617 3.82606 3.80128 3.18506 3.80128L0 3.78612V6.25014H1.66757C2.42882 6.25014 2.87453 6.59077 3.00472 7.27177V11.5838C3.10502 11.5838 3.18506 11.589 3.24521 11.599H3.00472V17.6385C2.92468 18.1492 2.63426 18.4048 2.13339 18.4048H0.465925L0.000105188 21.1543H3.00499C3.19532 21.1543 3.4706 21.1568 3.83133 21.1613C4.19185 21.1664 4.46217 21.1689 4.64251 21.1689V25H6.95672V21.2139C7.37728 21.2242 7.98823 21.2291 8.78952 21.2291V25H11.1031V21.1689C11.9246 21.1289 12.6532 21.0542 13.289 20.9436C13.925 20.833 14.5336 20.6605 15.1144 20.425C15.6952 20.1898 16.1809 19.8966 16.5715 19.546C16.9623 19.1958 17.285 18.7499 17.5408 18.2089C17.7959 17.6679 17.9588 17.0419 18.0287 16.3306C18.1595 14.9387 17.934 13.8669 17.3531 13.1156ZM7.00123 6.41496C7.07138 6.41496 7.26919 6.41243 7.59472 6.40738C7.9204 6.40223 8.19073 6.39728 8.40606 6.39223C8.62144 6.38728 8.91193 6.3998 9.27766 6.42985C9.64323 6.4599 9.95118 6.50005 10.2015 6.55004C10.4518 6.60004 10.7275 6.68271 11.0277 6.7979C11.3285 6.91298 11.5687 7.05328 11.7488 7.21851C11.9292 7.38375 12.0819 7.59419 12.2069 7.84962C12.3323 8.105 12.3949 8.39795 12.3949 8.72843C12.3949 9.00891 12.3499 9.26439 12.2599 9.49488C12.17 9.72521 12.0344 9.91808 11.8543 10.0733C11.6742 10.2286 11.4886 10.364 11.2982 10.479C11.1081 10.5941 10.865 10.6868 10.5696 10.7569C10.2743 10.827 10.0164 10.8821 9.79615 10.9221C9.57576 10.9622 9.30039 10.9899 8.96981 11.0048C8.63918 11.0197 8.38869 11.0299 8.21851 11.0349C8.04817 11.0398 7.81537 11.0398 7.51978 11.0349C7.22415 11.0299 7.05159 11.0273 7.00139 11.0273V6.41491L7.00123 6.41496ZM13.3192 16.6463C13.2238 16.8768 13.1012 17.0772 12.9511 17.2476C12.8007 17.4176 12.6028 17.568 12.3575 17.698C12.1123 17.8284 11.8742 17.9334 11.644 18.0136C11.4135 18.094 11.1355 18.1637 10.8102 18.224C10.4843 18.2842 10.199 18.3265 9.95339 18.3517C9.70811 18.3768 9.41526 18.3968 9.07458 18.4119C8.73416 18.4266 8.46857 18.4343 8.27834 18.4343C8.08801 18.4343 7.84757 18.4315 7.55709 18.4266C7.26645 18.422 7.08133 18.4194 7.00113 18.4194V13.341C7.08117 13.341 7.31908 13.3362 7.7148 13.3259C8.11058 13.3158 8.43342 13.3112 8.68386 13.3112C8.93424 13.3112 9.27992 13.3259 9.72079 13.3562C10.1612 13.386 10.5319 13.4309 10.8326 13.491C11.133 13.5512 11.4608 13.6437 11.8166 13.7691C12.1721 13.8942 12.4602 14.0469 12.6806 14.2272C12.901 14.4078 13.0862 14.6378 13.2364 14.9184C13.3869 15.1987 13.462 15.5193 13.462 15.88C13.462 16.1607 13.4145 16.4158 13.3192 16.6463Z" fill="currentColor"/>
</svg>
