<svg xmlns="http://www.w3.org/2000/svg" width="21" height="16" viewBox="0 0 21 16" fill="none">
  <path d="M17.7745 1.32633C16.4366 0.712455 15.0019 0.260158 13.5018 0.001087C13.4745 -0.00391484 13.4472 0.00858975 13.4331 0.0335579C13.2486 0.361752 13.0442 0.78986 12.9011 1.12638C11.2876 0.884813 9.68245 0.884813 8.10211 1.12638C7.95895 0.782399 7.74715 0.361752 7.56179 0.0335579C7.54773 0.00940972 7.52042 -0.00309487 7.49312 0.001087C5.99388 0.259297 4.55917 0.711594 3.2204 1.32633C3.2088 1.33133 3.19888 1.33965 3.19228 1.35048C0.470949 5.41611 -0.274571 9.38183 0.0911376 13.2983C0.0927776 13.3175 0.10356 13.3358 0.118443 13.3475C1.9139 14.666 3.65314 15.4665 5.36004 15.9971C5.38735 16.0054 5.41629 15.9954 5.43367 15.9729C5.83743 15.4215 6.19736 14.8401 6.50595 14.2287C6.52416 14.1929 6.50677 14.1505 6.46955 14.1363C5.89864 13.9197 5.35504 13.6557 4.8321 13.3558C4.79073 13.3317 4.78741 13.2725 4.8255 13.2442C4.93554 13.1617 5.04562 13.0759 5.1507 12.9893C5.16973 12.9735 5.19621 12.9702 5.21855 12.9801C8.65392 14.5486 12.3731 14.5486 15.7679 12.9801C15.7903 12.9693 15.8168 12.9727 15.8366 12.9884C15.9417 13.0751 16.0518 13.1617 16.1626 13.2442C16.2007 13.2725 16.1982 13.3316 16.1568 13.3558C15.6339 13.6615 15.0903 13.9197 14.5186 14.1354C14.4813 14.1496 14.4648 14.1929 14.483 14.2287C14.7983 14.8392 15.1582 15.4206 15.5545 15.9721C15.571 15.9954 15.6008 16.0054 15.6281 15.997C17.3433 15.4665 19.0825 14.666 20.878 13.3474C20.8937 13.3358 20.9037 13.3183 20.9053 13.2991C21.343 8.77119 20.1722 4.83799 17.8017 1.35126C17.796 1.33965 17.786 1.33133 17.7745 1.32633ZM7.01905 10.9136C5.98478 10.9136 5.13254 9.96405 5.13254 8.79788C5.13254 7.63172 5.96821 6.68219 7.01905 6.68219C8.07809 6.68219 8.92209 7.64008 8.90552 8.79788C8.90552 9.96405 8.06981 10.9136 7.01905 10.9136ZM13.994 10.9136C12.9598 10.9136 12.1076 9.96405 12.1076 8.79788C12.1076 7.63172 12.9432 6.68219 13.994 6.68219C15.0531 6.68219 15.8971 7.64008 15.8805 8.79788C15.8805 9.96405 15.0532 10.9136 13.994 10.9136Z" fill="#222222"/>
</svg>