<svg xmlns="http://www.w3.org/2000/svg" width="20" height="23" viewBox="0 0 20 23" fill="none">
  <path d="M19.5983 14.7262H19.134V13.1965C19.134 9.72959 16.319 6.90844 12.8596 6.90844H11.1669L11.0978 6.7751C10.7965 6.18494 10.2298 5.76146 9.58409 5.6417L9.38161 5.60466V3.80949H12.1991C13.1547 3.80949 13.9325 3.03044 13.9325 2.07236C13.9325 1.11428 13.1547 0.333984 12.1991 0.333984H3.17384C2.21823 0.333984 1.44041 1.11428 1.44041 2.07236C1.44041 3.03044 2.21823 3.80949 3.17384 3.80949H5.97524V5.60466L5.77276 5.6417C5.12581 5.76146 4.56034 6.18494 4.25909 6.7751L4.18995 6.90844H0.526774C0.426768 6.90844 0.335405 6.94548 0.26503 7.00598H0.263796C0.177371 7.08129 0.123047 7.19117 0.123047 7.3134C0.123047 7.49119 0.239103 7.64305 0.398372 7.69614C0.439115 7.71096 0.482327 7.71836 0.526774 7.71836H4.02451V10.8173H0.526774C0.468746 10.8173 0.413187 10.8297 0.362567 10.8531C0.221818 10.9161 0.123047 11.0581 0.123047 11.2223C0.123047 11.3778 0.211941 11.5124 0.340343 11.5791C0.395902 11.6099 0.460103 11.626 0.526774 11.626H4.18995L4.25909 11.7606C4.62701 12.4816 5.35668 12.9298 6.16167 12.9298H9.19518C10.0002 12.9298 10.7286 12.4816 11.0978 11.7606L11.1669 11.626H12.8732C13.73 11.626 14.4263 12.3248 14.4263 13.1816V14.7262H13.9634C13.7411 14.7262 13.5596 14.9077 13.5596 15.1299C13.5596 15.3521 13.7411 15.5349 13.9634 15.5349H19.5983C19.8205 15.5349 20.0007 15.3534 20.0007 15.1299C20.0007 14.9064 19.8205 14.7262 19.5983 14.7262ZM3.17384 3.00081C2.6627 3.00081 2.24663 2.5835 2.24663 2.07236C2.24663 1.56122 2.6627 1.14267 3.17384 1.14267H12.1991C12.7102 1.14267 13.1263 1.55998 13.1263 2.07236C13.1263 2.58473 12.7102 3.00081 12.1991 3.00081H3.17384ZM8.57539 3.80949V5.6059H6.78146V3.80949H8.57539ZM10.5261 10.7877C10.5261 11.5223 9.92855 12.1199 9.19518 12.1199H6.16167C5.42706 12.1199 4.83073 11.5223 4.83073 10.7877V7.74799C4.83073 7.01338 5.42706 6.41458 6.16167 6.41458H9.19518C9.92855 6.41458 10.5261 7.01338 10.5261 7.74799V10.7877ZM18.3278 14.7262H15.2338V13.1816C15.2338 11.8779 14.1745 10.8173 12.8732 10.8173H11.3323V7.71836H12.8596C15.8746 7.71836 18.3278 10.1753 18.3278 13.1965V14.7262Z" fill="#222222"/>
  <path d="M17.8341 18.4071C17.4933 17.87 17.1341 17.5009 17.0662 17.433C16.9896 17.3564 16.8884 17.3145 16.781 17.3145C16.6735 17.3145 16.5723 17.3564 16.4957 17.4317C16.4266 17.5009 16.0686 17.87 15.7266 18.4071C15.2957 19.0862 15.0771 19.7306 15.0771 20.3245C15.0771 21.2653 15.8414 22.032 16.781 22.032C17.7205 22.032 18.4848 21.2653 18.4848 20.3245C18.4848 19.7306 18.265 19.0862 17.8341 18.4071ZM17.5649 20.7554C17.4143 21.0468 17.1242 21.2209 16.7859 21.2209C16.3488 21.2209 15.8834 20.9073 15.8834 20.3245C15.8834 19.6961 16.2624 19.0355 16.5797 18.5911L16.781 18.3108L16.981 18.5911C17.7971 19.7306 17.7489 20.3961 17.5649 20.7554Z" fill="#222222"/>
  <path d="M0.358074 11.58H0.35437C0.156828 11.5775 -0.00244095 11.4158 2.83293e-05 11.217L0.0432407 7.33286C0.04571 7.13531 0.203744 6.97852 0.406225 6.97852C0.603767 6.98098 0.763036 7.14272 0.760566 7.3415L0.717354 11.2257C0.714885 11.422 0.555616 11.58 0.359308 11.58H0.358074Z" fill="#222222"/>
</svg>