<svg width="72" height="50" viewBox="0 0 72 50" fill="none" xmlns="http://www.w3.org/2000/svg">
<path fill-rule="evenodd" clip-rule="evenodd" d="M47.6095 49.5781C47.4644 49.5781 47.3192 49.5404 47.1892 49.4654L39.4703 45.0085C39.2101 44.8584 39.0498 44.5807 39.0498 44.2804V35.3672C39.0498 35.0667 39.2101 34.7893 39.4703 34.6391L47.189 30.1821C47.4491 30.0322 47.77 30.0319 48.03 30.1821L55.7492 34.6391C56.0092 34.7893 56.1695 35.0668 56.1695 35.3672V44.2802C56.1695 44.5807 56.0092 44.8582 55.7492 45.0085L48.03 49.4652C47.8999 49.5404 47.7548 49.5781 47.6095 49.5781ZM40.7314 43.7949L47.6095 47.7663L54.4879 43.7949V35.8526L47.6095 31.8812L40.7314 35.8526V43.7949Z" fill="#FEFEFE"/>
<path fill-rule="evenodd" clip-rule="evenodd" d="M47.6094 40.6643C47.4641 40.6643 47.319 40.6268 47.1889 40.5516L39.4704 36.0951C39.0682 35.8629 38.9304 35.3485 39.1626 34.9465C39.3948 34.5447 39.9087 34.4067 40.3112 34.6388L47.6094 38.8528L54.9085 34.6388C55.3109 34.4069 55.825 34.5447 56.0569 34.9465C56.2891 35.3487 56.1514 35.8629 55.7493 36.0951L48.0297 40.5516C47.8995 40.627 47.7545 40.6643 47.6094 40.6643Z" fill="#FEFEFE"/>
<path fill-rule="evenodd" clip-rule="evenodd" d="M47.6094 49.5781C47.1451 49.5781 46.7686 49.2015 46.7686 48.7372V39.8238C46.7686 39.3596 47.1451 38.983 47.6094 38.983C48.0737 38.983 48.4502 39.3596 48.4502 39.8238V48.7372C48.4502 49.2015 48.0738 49.5781 47.6094 49.5781Z" fill="#FEFEFE"/>
<path fill-rule="evenodd" clip-rule="evenodd" d="M63.0479 49.5781C62.9028 49.5781 62.7575 49.5404 62.6275 49.4654L54.9088 45.0085C54.6486 44.8584 54.4883 44.5807 54.4883 44.2804V35.3672C54.4883 35.0667 54.6486 34.7893 54.9088 34.6391L62.6276 30.1821C62.8875 30.0322 63.2083 30.0319 63.4686 30.1821L71.1873 34.6391C71.4473 34.7893 71.6076 35.0668 71.6076 35.3672V44.2802C71.6076 44.5807 71.4473 44.8582 71.1873 45.0085L63.4684 49.4652C63.3384 49.5404 63.1931 49.5781 63.0479 49.5781ZM56.1699 43.7949L63.0479 47.7663L69.926 43.7949V35.8526L63.0479 31.8812L56.1699 35.8526V43.7949Z" fill="#FEFEFE"/>
<path fill-rule="evenodd" clip-rule="evenodd" d="M63.0484 40.6643C62.9031 40.6643 62.7582 40.6267 62.6279 40.5515L54.9087 36.0951C54.5066 35.8628 54.3689 35.3486 54.6011 34.9465C54.8332 34.5447 55.3472 34.4065 55.7495 34.6387L63.0482 38.8525L70.3465 34.6387C70.7486 34.4068 71.263 34.5447 71.495 34.9465C71.7271 35.3485 71.5894 35.8628 71.1873 36.0951L63.4688 40.5515C63.3387 40.6269 63.1935 40.6643 63.0484 40.6643Z" fill="#FEFEFE"/>
<path fill-rule="evenodd" clip-rule="evenodd" d="M63.0476 49.5781C62.5833 49.5781 62.2068 49.2015 62.2068 48.7372V39.8238C62.2068 39.3596 62.5833 38.983 63.0476 38.983C63.5119 38.983 63.8884 39.3596 63.8884 39.8238V48.7372C63.8884 49.2015 63.5119 49.5781 63.0476 49.5781Z" fill="#FEFEFE"/>
<path fill-rule="evenodd" clip-rule="evenodd" d="M55.3291 36.2078C55.1839 36.2078 55.0388 36.1703 54.9087 36.0953L47.1895 31.6383C46.9294 31.4881 46.769 31.2104 46.769 30.9103V21.9975C46.769 21.697 46.9294 21.4195 47.1895 21.2694L54.9087 16.8125C55.1686 16.6623 55.4895 16.6623 55.7494 16.8125L63.4682 21.2694C63.7284 21.4195 63.8887 21.6972 63.8887 21.9975V30.9103C63.8887 31.2106 63.7284 31.4881 63.4682 31.6383L55.7494 36.0953C55.6195 36.1705 55.4742 36.2078 55.3291 36.2078ZM48.4506 30.425L55.3291 34.3963L62.2071 30.425V22.4831L55.3291 18.5116L48.4506 22.4831V30.425Z" fill="#FEFEFE"/>
<path fill-rule="evenodd" clip-rule="evenodd" d="M55.3285 27.2944C55.1832 27.2944 55.0382 27.2569 54.908 27.1819L47.1886 22.7256C46.7865 22.4933 46.6486 21.9791 46.8809 21.577C47.1131 21.1748 47.627 21.0372 48.0294 21.2692L55.3285 25.4827L62.6267 21.2692C63.0292 21.0372 63.5432 21.175 63.7751 21.5768C64.0072 21.9791 63.8697 22.4933 63.4675 22.7254L55.7488 27.1817C55.6186 27.2569 55.4736 27.2944 55.3285 27.2944Z" fill="#FEFEFE"/>
<path fill-rule="evenodd" clip-rule="evenodd" d="M55.3291 36.2078C54.8648 36.2078 54.4883 35.8312 54.4883 35.367V26.4537C54.4883 25.9894 54.8648 25.6129 55.3291 25.6129C55.7934 25.6129 56.1699 25.9894 56.1699 26.4537V35.367C56.1699 35.8314 55.7934 36.2078 55.3291 36.2078Z" fill="#FEFEFE"/>
<path fill-rule="evenodd" clip-rule="evenodd" d="M20.3026 50H17.1704C7.70266 50 0 42.2973 0 32.8297V16.4996C0 16.0353 0.376523 15.6589 0.840814 15.6589H36.6321C37.0964 15.6589 37.4729 16.0353 37.4729 16.4996V32.8297C37.4729 42.2975 29.7704 50 20.3026 50ZM1.68163 17.3404V32.8297C1.68163 41.37 8.62978 48.3182 17.1705 48.3182L20.3026 48.3183C28.8431 48.3183 35.7913 41.3702 35.7913 32.8297V17.3404L1.68163 17.3404Z" fill="#FEFEFE"/>
<path fill-rule="evenodd" clip-rule="evenodd" d="M30.8157 17.3404H6.65681C6.19268 17.3404 5.81616 16.964 5.81616 16.4995V12.9204C5.81616 5.79609 11.6121 0 18.7363 0C25.8606 0 31.6565 5.79609 31.6565 12.9204V16.4995C31.6565 16.964 31.28 17.3404 30.8157 17.3404ZM7.49747 15.6589H29.9748V12.9204C29.9748 6.72337 24.9334 1.68162 18.7365 1.68162C12.5392 1.68162 7.49764 6.72337 7.49764 12.9204L7.49747 15.6589Z" fill="#FEFEFE"/>
<path fill-rule="evenodd" clip-rule="evenodd" d="M18.7366 40.9078C16.2778 40.9078 14.2774 38.9072 14.2774 36.448C14.2774 35.9838 14.6539 35.6072 15.1182 35.6072C15.5823 35.6072 15.9588 35.9838 15.9588 36.448C15.9588 37.9799 17.2051 39.2262 18.7366 39.2262C20.2683 39.2262 21.5148 37.9799 21.5148 36.448C21.5148 34.9162 20.2685 33.6702 18.7366 33.6702C16.2778 33.6702 14.2773 31.6696 14.2773 29.2107C14.2773 26.7517 16.2778 24.7511 18.7366 24.7511C21.1958 24.7511 23.1962 26.7517 23.1962 29.2107C23.1962 29.675 22.8197 30.0515 22.3554 30.0515C21.8911 30.0515 21.5147 29.675 21.5147 29.2107C21.5147 27.679 20.2685 26.4327 18.7366 26.4327C17.2049 26.4327 15.9588 27.679 15.9588 29.2107C15.9588 30.7424 17.2051 31.9886 18.7366 31.9886C21.1957 31.9886 23.1962 33.9891 23.1962 36.448C23.1962 38.907 21.1958 40.9078 18.7366 40.9078Z" fill="#FEFEFE"/>
<path fill-rule="evenodd" clip-rule="evenodd" d="M18.7366 26.4325C18.2725 26.4325 17.896 26.056 17.896 25.5917V22.1954C17.896 21.7311 18.2725 21.3546 18.7366 21.3546C19.2009 21.3546 19.5775 21.7311 19.5775 22.1954V25.5917C19.5775 26.056 19.2011 26.4325 18.7366 26.4325Z" fill="#FEFEFE"/>
<path fill-rule="evenodd" clip-rule="evenodd" d="M18.7366 44.3041C18.2725 44.3041 17.896 43.9276 17.896 43.4633V40.067C17.896 39.6027 18.2725 39.2262 18.7366 39.2262C19.2009 39.2262 19.5775 39.6027 19.5775 40.067V43.4633C19.5775 43.9276 19.2011 44.3041 18.7366 44.3041Z" fill="#FEFEFE"/>
</svg>
