<svg width="36" height="36" viewBox="0 0 36 36" fill="none" xmlns="http://www.w3.org/2000/svg">
<path d="M17.842 36.0017C17.6455 36.0017 17.4535 35.9237 17.311 35.7827C17.134 35.6057 17.0559 35.3507 17.1054 35.1062L18.166 29.8034C18.196 29.6564 18.265 29.5229 18.3715 29.4194L30.0391 17.7518C30.9152 16.8757 32.3447 16.8757 33.2208 17.7518L35.3419 19.8729C36.2194 20.7504 36.2194 22.177 35.3419 23.0545L23.6743 34.7221C23.5708 34.8272 23.4373 34.8977 23.2903 34.9277L17.9875 35.9882C17.9395 35.9972 17.89 36.0017 17.842 36.0017ZM19.5941 30.3179L18.799 34.2946L22.7757 33.4996L34.2828 21.9925C34.5754 21.7 34.5754 21.2244 34.2828 20.9319L32.1617 18.8108C31.8692 18.5183 31.3937 18.5183 31.1012 18.8108L19.5941 30.3179Z" fill="currentColor"/>
<path d="M14.2507 31.5014H3.7502C1.68159 31.5014 0 29.8198 0 27.7512V8.2502C0 6.18159 1.68159 4.5 3.7502 4.5H6.75035C7.16437 4.5 7.50039 4.83602 7.50039 5.25004C7.50039 5.66406 7.16437 6.00008 6.75035 6.00008H3.7502C2.50963 6.00008 1.50008 7.00963 1.50008 8.2502V27.7512C1.50008 28.9918 2.50963 30.0013 3.7502 30.0013H14.2507C14.6648 30.0013 15.0008 30.3373 15.0008 30.7514C15.0008 31.1654 14.6648 31.5014 14.2507 31.5014Z" fill="currentColor"/>
<path d="M24.7513 18.0007C24.3373 18.0007 24.0013 17.6647 24.0013 17.2507V8.2502C24.0013 7.00963 22.9917 6.00008 21.7512 6.00008H18.751C18.337 6.00008 18.001 5.66406 18.001 5.25004C18.001 4.83602 18.337 4.5 18.751 4.5H21.7512C23.8198 4.5 25.5014 6.18159 25.5014 8.2502V17.2507C25.5014 17.6647 25.1654 18.0007 24.7513 18.0007Z" fill="currentColor"/>
<path d="M17.2511 9.00047H8.25061C7.01004 9.00047 6.00049 7.99092 6.00049 6.75035V3.7502C6.00049 3.33617 6.33651 3.00016 6.75053 3.00016H9.07565C9.42367 1.29007 10.9402 0 12.7508 0C14.5614 0 16.078 1.29007 16.426 3.00016H18.7512C19.1652 3.00016 19.5012 3.33617 19.5012 3.7502V6.75035C19.5012 7.99092 18.4916 9.00047 17.2511 9.00047ZM7.50057 4.50023V6.75035C7.50057 7.16287 7.83808 7.50039 8.25061 7.50039H17.2511C17.6636 7.50039 18.0011 7.16287 18.0011 6.75035V4.50023H15.751C15.337 4.50023 15.001 4.16422 15.001 3.7502C15.001 2.50963 13.9914 1.50008 12.7508 1.50008C11.5103 1.50008 10.5007 2.50963 10.5007 3.7502C10.5007 4.16422 10.1647 4.50023 9.75068 4.50023H7.50057Z" fill="currentColor"/>
<path d="M20.2508 13.5011H5.25004C4.83602 13.5011 4.5 13.165 4.5 12.751C4.5 12.337 4.83602 12.001 5.25004 12.001H20.2508C20.6648 12.001 21.0009 12.337 21.0009 12.751C21.0009 13.165 20.6648 13.5011 20.2508 13.5011Z" fill="currentColor"/>
<path d="M20.2508 18.0011H5.25004C4.83602 18.0011 4.5 17.665 4.5 17.251C4.5 16.837 4.83602 16.501 5.25004 16.501H20.2508C20.6648 16.501 21.0009 16.837 21.0009 17.251C21.0009 17.665 20.6648 18.0011 20.2508 18.0011Z" fill="currentColor"/>
<path d="M20.2508 22.5011H5.25004C4.83602 22.5011 4.5 22.165 4.5 21.751C4.5 21.337 4.83602 21.001 5.25004 21.001H20.2508C20.6648 21.001 21.0009 21.337 21.0009 21.751C21.0009 22.165 20.6648 22.5011 20.2508 22.5011Z" fill="currentColor"/>
</svg>
