<svg width="36" height="36" viewBox="0 0 36 36" fill="none" xmlns="http://www.w3.org/2000/svg">
<path d="M31.7416 20.991L31.7577 15.0104C33.8215 14.6619 35.4028 12.8725 35.4028 10.7083C35.4028 8.29625 33.4411 6.33333 31.0304 6.33333C29.5744 6.33333 28.2918 7.05521 27.4974 8.15333L22.249 5.23521C22.2593 5.11417 22.2855 4.99896 22.2855 4.875C22.2855 2.46292 20.3237 0.5 17.913 0.5C15.5024 0.5 13.5406 2.46292 13.5406 4.875C13.5406 5.00042 13.5668 5.12 13.5785 5.2425L8.30822 8.12708C7.51098 7.045 6.24005 6.33333 4.79714 6.33333C2.38647 6.33333 0.424694 8.29625 0.424694 10.7083C0.424694 12.871 2.00315 14.659 4.06694 15.009L4.05091 20.9896C1.9842 21.3396 0.402832 23.1275 0.402832 25.2917C0.402832 27.7038 2.3646 29.6667 4.77528 29.6667C6.21819 29.6667 7.49057 28.955 8.28636 27.8729L13.5566 30.7575C13.5464 30.8815 13.5187 30.9996 13.5187 31.125C13.5187 33.5371 15.4805 35.5 17.8912 35.5C20.3018 35.5 22.2636 33.5371 22.2636 31.125C22.2636 31.0025 22.2374 30.8873 22.2272 30.7677L27.4974 27.8744C28.2947 28.9565 29.5656 29.6667 31.0085 29.6667C33.4192 29.6667 35.381 27.7038 35.381 25.2917C35.381 23.129 33.8025 21.341 31.7387 20.991H31.7416ZM31.0304 7.79167C32.638 7.79167 33.9454 9.09979 33.9454 10.7083C33.9454 12.3169 32.638 13.625 31.0304 13.625C29.4228 13.625 28.1154 12.3169 28.1154 10.7083C28.1154 9.09979 29.4228 7.79167 31.0304 7.79167ZM17.913 1.95833C19.5206 1.95833 20.828 3.26646 20.828 4.875C20.828 6.48354 19.5206 7.79167 17.913 7.79167C16.3054 7.79167 14.9981 6.48354 14.9981 4.875C14.9981 3.26646 16.3054 1.95833 17.913 1.95833ZM1.88072 10.7083C1.88072 9.09979 3.18808 7.79167 4.79569 7.79167C6.40329 7.79167 7.71065 9.09979 7.71065 10.7083C7.71065 12.3169 6.40329 13.625 4.79569 13.625C3.18808 13.625 1.88072 12.3169 1.88072 10.7083ZM4.77528 28.2083C3.16768 28.2083 1.86032 26.9002 1.86032 25.2917C1.86032 23.6831 3.16768 22.375 4.77528 22.375C6.38289 22.375 7.69025 23.6831 7.69025 25.2917C7.69025 26.9002 6.38289 28.2083 4.77528 28.2083ZM17.8926 34.0417C16.285 34.0417 14.9777 32.7335 14.9777 31.125C14.9777 29.5165 16.285 28.2083 17.8926 28.2083C19.5002 28.2083 20.8076 29.5165 20.8076 31.125C20.8076 32.7335 19.5002 34.0417 17.8926 34.0417ZM26.6375 25.2917C26.6375 25.7379 26.725 26.1608 26.8489 26.5663L21.857 29.3065C21.1647 27.8015 19.6533 26.75 17.8912 26.75C16.1291 26.75 14.6235 27.8 13.9297 29.3006L8.93494 26.5663C9.06028 26.1594 9.14627 25.7379 9.14627 25.2917C9.14627 23.129 7.56782 21.341 5.50402 20.991L5.52006 15.0104C7.58385 14.6619 9.16522 12.8725 9.16522 10.7083C9.16522 10.2621 9.07777 9.83917 8.95389 9.43375L13.9487 6.69938C14.6424 8.2 16.1509 9.25 17.9101 9.25C19.6693 9.25 21.1807 8.19854 21.873 6.69646L26.8562 9.46729C26.7381 9.86396 26.655 10.2752 26.655 10.7098C26.655 12.8725 28.2335 14.6604 30.2973 15.0104L30.2812 20.991C28.2174 21.3396 26.6361 23.129 26.6361 25.2931L26.6375 25.2917ZM31.01 28.2083C29.4024 28.2083 28.095 26.9002 28.095 25.2917C28.095 23.6831 29.4024 22.375 31.01 22.375C32.6176 22.375 33.9249 23.6831 33.9249 25.2917C33.9249 26.9002 32.6176 28.2083 31.01 28.2083ZM12.0846 14.6619V21.6881L17.913 25.0233L23.7444 21.6881V14.6619L17.913 11.3267L12.0846 14.6619ZM21.8249 15.2437L17.9174 17.4429L14.007 15.2423L17.913 13.0067L21.8249 15.2437ZM13.542 16.6554L17.1872 18.7073V22.9292L13.542 20.8423V16.6554ZM18.6447 22.9233V18.7058L22.2869 16.6569V20.8423L18.6447 22.9233Z" fill="currentColor"/>
</svg>
