<svg width="19" height="14" viewBox="0 0 19 14" fill="none" xmlns="http://www.w3.org/2000/svg">
<path d="M16.7004 14H13.5004C13.3413 14 13.1886 13.9368 13.0761 13.8243C12.9636 13.7117 12.9004 13.5591 12.9004 13.4C12.9004 13.2409 12.9636 13.0883 13.0761 12.9757C13.1886 12.8632 13.3413 12.8 13.5004 12.8H16.7004C16.7534 12.7999 16.8042 12.7788 16.8417 12.7413C16.8792 12.7038 16.9003 12.653 16.9004 12.6V1.4C16.9003 1.34699 16.8792 1.29618 16.8417 1.25869C16.8042 1.22121 16.7534 1.2001 16.7004 1.2H2.30039C2.24738 1.2001 2.19657 1.22121 2.15908 1.25869C2.1216 1.29618 2.10049 1.34699 2.10039 1.4V12.6C2.10049 12.653 2.1216 12.7038 2.15908 12.7413C2.19657 12.7788 2.24738 12.7999 2.30039 12.8H5.50039C5.65952 12.8 5.81213 12.8632 5.92465 12.9757C6.03718 13.0883 6.10039 13.2409 6.10039 13.4C6.10039 13.5591 6.03718 13.7117 5.92465 13.8243C5.81213 13.9368 5.65952 14 5.50039 14H2.30039C1.92923 13.9995 1.57339 13.8519 1.31094 13.5895C1.04849 13.327 0.900842 12.9712 0.900391 12.6V1.4C0.900842 1.02884 1.04849 0.673002 1.31094 0.410549C1.57339 0.148095 1.92923 0.000450938 2.30039 0H16.7004C17.0716 0.000450938 17.4274 0.148095 17.6898 0.410549C17.9523 0.673002 18.0999 1.02884 18.1004 1.4V12.6C18.0999 12.9712 17.9523 13.327 17.6898 13.5895C17.4274 13.8519 17.0716 13.9995 16.7004 14Z" fill="currentColor"/>
<path d="M12.7015 9.6C12.6227 9.59991 12.5447 9.61539 12.4719 9.64556C12.3991 9.67572 12.3329 9.71998 12.2773 9.77579L9.50152 12.5516L6.72573 9.77579C6.61308 9.66395 6.4607 9.60132 6.30197 9.60161C6.14323 9.6019 5.99108 9.66509 5.87884 9.77733C5.7666 9.88957 5.70342 10.0417 5.70313 10.2005C5.70284 10.3592 5.76547 10.5116 5.8773 10.6242L9.0773 13.8242C9.133 13.8799 9.19913 13.9242 9.27192 13.9543C9.34471 13.9845 9.42273 14 9.50152 14C9.58031 14 9.65832 13.9845 9.73111 13.9543C9.8039 13.9242 9.87003 13.8799 9.92573 13.8242L13.1257 10.6242C13.2096 10.5403 13.2668 10.4334 13.2899 10.317C13.313 10.2007 13.3012 10.08 13.2558 9.97041C13.2103 9.86078 13.1335 9.76708 13.0348 9.70115C12.9362 9.63522 12.8202 9.60002 12.7015 9.6Z" fill="currentColor"/>
<path d="M9.50137 4C9.34225 4.00004 9.18966 4.06327 9.07715 4.17578C8.96464 4.28829 8.90141 4.44088 8.90137 4.6V13.4C8.90137 13.5591 8.96458 13.7117 9.0771 13.8243C9.18963 13.9368 9.34224 14 9.50137 14C9.6605 14 9.81311 13.9368 9.92563 13.8243C10.0382 13.7117 10.1014 13.5591 10.1014 13.4V4.6C10.1013 4.44088 10.0381 4.28829 9.92558 4.17578C9.81307 4.06327 9.66048 4.00004 9.50137 4Z" fill="currentColor"/>
</svg>
