<svg width="28" height="40" viewBox="0 0 28 40" fill="none" xmlns="http://www.w3.org/2000/svg">
<path d="M27.3135 16.2916C27.2441 16.1539 27.1378 16.0381 27.0065 15.9572C26.8752 15.8763 26.7239 15.8334 26.5697 15.8333H16.708L19.0005 0.960221C19.0289 0.77604 18.9947 0.587662 18.9034 0.425189C18.8122 0.262716 18.6691 0.135524 18.497 0.0639379C18.325 -0.00764829 18.1339 -0.0194977 17.9543 0.0302832C17.7747 0.080064 17.617 0.188602 17.5063 0.338554L0.89909 22.8386C0.807538 22.9627 0.752212 23.1097 0.739269 23.2634C0.726326 23.417 0.756272 23.5713 0.825777 23.7089C0.895282 23.8466 1.00162 23.9622 1.13295 24.0431C1.26429 24.1239 1.41547 24.1667 1.56967 24.1667H11.4313L9.13885 39.0397C9.1103 39.2239 9.14444 39.4124 9.23578 39.5749C9.32713 39.7373 9.47039 39.8644 9.6426 39.9357C9.7438 39.9785 9.85258 40.0003 9.96243 40C10.0929 40 10.2215 39.9693 10.338 39.9105C10.4545 39.8517 10.5555 39.7664 10.633 39.6615L27.2403 17.1615C27.3317 17.0374 27.3869 16.8905 27.3998 16.7369C27.4127 16.5834 27.3829 16.4292 27.3135 16.2916ZM11.3019 35.9489L13.2269 23.4602C13.2452 23.3414 13.2376 23.2201 13.2046 23.1045C13.1716 22.989 13.114 22.8819 13.0358 22.7907C12.9575 22.6995 12.8604 22.6262 12.7512 22.5761C12.642 22.5259 12.5232 22.4999 12.403 22.5H3.22084L16.8375 4.05106L14.9125 16.5397C14.8942 16.6585 14.9018 16.7799 14.9348 16.8954C14.9678 17.011 15.0254 17.118 15.1037 17.2093C15.1819 17.3005 15.279 17.3737 15.3882 17.4239C15.4974 17.4741 15.6162 17.5 15.7363 17.5H24.9185L11.3019 35.9489Z" fill="currentColor"/>
</svg>
