<svg width="15" height="14" viewBox="0 0 15 14" fill="none" xmlns="http://www.w3.org/2000/svg">
<path d="M13.7221 5.70444H1.27869C1.07243 5.70444 0.874614 5.6225 0.728764 5.47665C0.582914 5.3308 0.500977 5.13299 0.500977 4.92673C0.500977 4.72046 0.582914 4.52265 0.728764 4.3768C0.874614 4.23095 1.07243 4.14901 1.27869 4.14901H12.1667L9.9895 1.24575C9.92792 1.16412 9.88305 1.07115 9.85745 0.972148C9.83186 0.873152 9.82604 0.770078 9.84033 0.66883C9.85463 0.567582 9.88875 0.470147 9.94075 0.382105C9.99275 0.294063 10.0616 0.217143 10.1434 0.155748C10.2251 0.0943542 10.3182 0.0496921 10.4173 0.0243187C10.5163 -0.00105472 10.6194 -0.00664085 10.7206 0.00788044C10.8219 0.0224017 10.9192 0.0567451 11.0071 0.108944C11.0951 0.161143 11.1718 0.230172 11.233 0.31208L14.3439 4.45989C14.4307 4.57538 14.4836 4.71277 14.4967 4.85665C14.5097 5.00053 14.4825 5.14521 14.4179 5.27445C14.3533 5.40369 14.254 5.51238 14.1311 5.58833C14.0082 5.66429 13.8666 5.70449 13.7221 5.70444Z" fill="currentColor"/>
<path d="M4.39058 14.0001C4.26972 14.0005 4.15045 13.9725 4.04231 13.9185C3.93418 13.8646 3.84017 13.786 3.76779 13.6892L0.656935 9.54143C0.570138 9.42594 0.517236 9.28855 0.504165 9.14467C0.491095 9.00079 0.518372 8.85612 0.582937 8.72688C0.647502 8.59764 0.746801 8.48895 0.869694 8.41299C0.992587 8.33704 1.13421 8.29683 1.27868 8.29688H13.7221C13.9284 8.29688 14.1262 8.37881 14.272 8.52466C14.4179 8.67051 14.4998 8.86833 14.4998 9.07459C14.4998 9.28085 14.4179 9.47867 14.272 9.62452C14.1262 9.77037 13.9284 9.8523 13.7221 9.8523H2.83411L5.01131 12.7556C5.09809 12.871 5.15101 13.0083 5.16414 13.1521C5.17727 13.2959 5.15009 13.4405 5.08564 13.5697C5.02119 13.6989 4.92202 13.8076 4.79926 13.8837C4.67649 13.9597 4.53498 14 4.39058 14.0001Z" fill="currentColor"/>
</svg>
