<svg width="60" height="50" viewBox="0 0 60 50" fill="none" xmlns="http://www.w3.org/2000/svg">
<path fill-rule="evenodd" clip-rule="evenodd" d="M14.6822 42.3393C12.5852 42.3393 10.8789 40.6333 10.8789 38.5361C10.8789 38.2129 11.1408 37.951 11.4641 37.951C11.7873 37.951 12.0492 38.2129 12.0492 38.5361C12.0492 39.9878 13.2303 41.169 14.6822 41.169C16.134 41.169 17.3152 39.9878 17.3152 38.5361C17.3152 37.0842 16.134 35.903 14.6822 35.903C12.5851 35.903 10.8789 34.1968 10.8789 32.0996C10.8789 30.0027 12.585 28.2965 14.6822 28.2965C16.7794 28.2965 18.4854 30.0027 18.4854 32.0996C18.4854 32.4229 18.2236 32.6847 17.9003 32.6847C17.5772 32.6847 17.3152 32.4229 17.3152 32.0996C17.3152 30.6479 16.134 29.4668 14.6822 29.4668C13.2305 29.4668 12.0492 30.6479 12.0492 32.0996C12.0492 33.5516 13.2303 34.7328 14.6822 34.7328C16.7794 34.7328 18.4854 36.4389 18.4854 38.5361C18.4854 40.6333 16.7794 42.3393 14.6822 42.3393Z" fill="#FEFEFE"/>
<path fill-rule="evenodd" clip-rule="evenodd" d="M14.682 44.1904C14.3589 44.1904 14.0969 43.9285 14.0969 43.6053V27.0308C14.0969 26.7075 14.3589 26.4457 14.682 26.4457C15.0053 26.4457 15.2671 26.7075 15.2671 27.0308V43.6054C15.2671 43.9285 15.0053 44.1904 14.682 44.1904Z" fill="#FEFEFE"/>
<path fill-rule="evenodd" clip-rule="evenodd" d="M14.6818 49.9999C6.58614 49.9999 0 43.4136 0 35.318C0 27.2224 6.58615 20.6362 14.6818 20.6362C22.7775 20.6362 29.3637 27.2224 29.3637 35.318C29.3637 43.4137 22.7774 49.9999 14.6818 49.9999ZM14.6818 21.8064C7.23149 21.8064 1.17014 27.8677 1.17014 35.318C1.17014 42.7682 7.23148 48.8297 14.6818 48.8297C22.1322 48.8297 28.1936 42.7683 28.1936 35.318C28.1936 27.8677 22.1321 21.8064 14.6818 21.8064Z" fill="#FEFEFE"/>
<path fill-rule="evenodd" clip-rule="evenodd" d="M14.6819 46.3793C8.58269 46.3793 3.62061 41.4172 3.62061 35.318C3.62061 29.2188 8.58269 24.2567 14.6819 24.2567C20.7814 24.2567 25.7433 29.2188 25.7433 35.318C25.7433 41.4172 20.7812 46.3793 14.6819 46.3793ZM14.6819 25.427C9.2279 25.427 4.79078 29.864 4.79078 35.3179C4.79078 40.7719 9.2279 45.209 14.6819 45.209C20.1359 45.209 24.5732 40.7717 24.5732 35.3179C24.5732 29.864 20.1359 25.427 14.6819 25.427Z" fill="#FEFEFE"/>
<path fill-rule="evenodd" clip-rule="evenodd" d="M45.2329 29.3635C37.1373 29.3635 30.551 22.7773 30.551 14.6818C30.551 6.58614 37.1373 0 45.2329 0C53.3286 0 59.9147 6.58615 59.9147 14.6819C59.9147 22.7773 53.3286 29.3635 45.2329 29.3635ZM45.2329 1.17014C37.7826 1.17014 31.7213 7.23148 31.7213 14.6819C31.7213 22.1322 37.7826 28.1933 45.2329 28.1933C52.6832 28.1933 58.7446 22.1321 58.7446 14.6819C58.7446 7.23147 52.6833 1.17014 45.2329 1.17014Z" fill="#FEFEFE"/>
<path fill-rule="evenodd" clip-rule="evenodd" d="M45.2328 25.7434C39.1336 25.7434 34.1714 20.7814 34.1714 14.682C34.1714 8.58281 39.1335 3.62073 45.2328 3.62073C51.3322 3.62073 56.2942 8.58281 56.2942 14.682C56.2942 20.7814 51.3321 25.7434 45.2328 25.7434ZM45.2328 4.79071C39.7789 4.79071 35.3417 9.22783 35.3417 14.6818C35.3417 20.1358 39.7789 24.573 45.2328 24.573C50.6867 24.573 55.1239 20.1358 55.1239 14.6818C55.1239 9.22783 50.6868 4.79071 45.2328 4.79071Z" fill="#FEFEFE"/>
<path fill-rule="evenodd" clip-rule="evenodd" d="M45.4655 15.267H43.2306C42.9075 15.267 42.6455 15.0051 42.6455 14.6819C42.6455 14.3586 42.9075 14.0968 43.2306 14.0968L45.4655 14.0967C46.5154 14.0967 47.3696 13.0581 47.3696 11.7815C47.3696 10.505 46.5153 9.46633 45.4655 9.46633H41.4345C41.1113 9.46633 40.8494 9.2044 40.8494 8.88111C40.8494 8.55795 41.1113 8.29602 41.4345 8.29602H45.4655C47.1607 8.29602 48.5398 9.85943 48.5398 11.7814C48.5399 13.7033 47.1607 15.267 45.4655 15.267Z" fill="#FEFEFE"/>
<path fill-rule="evenodd" clip-rule="evenodd" d="M46.131 21.0678H41.4344C41.1113 21.0678 40.8494 20.8059 40.8494 20.4826C40.8494 20.1594 41.1113 19.8975 41.4344 19.8975H46.131C47.4076 19.8975 48.4462 18.8589 48.4462 17.5823C48.4462 16.3056 47.4076 15.267 46.131 15.267H41.4344C41.1113 15.267 40.8494 15.0051 40.8494 14.6819C40.8494 14.3586 41.1113 14.0968 41.4344 14.0968L46.131 14.0967C48.0528 14.0967 49.6163 15.6602 49.6163 17.5822C49.6163 19.5041 48.0528 21.0678 46.131 21.0678Z" fill="#FEFEFE"/>
<path fill-rule="evenodd" clip-rule="evenodd" d="M43.2303 22.2846C42.9072 22.2846 42.6453 22.0228 42.6453 21.6995V7.66418C42.6453 7.34103 42.9072 7.0791 43.2303 7.0791C43.5536 7.0791 43.8154 7.34103 43.8154 7.66418V21.6995C43.8154 22.0228 43.5536 22.2846 43.2303 22.2846Z" fill="#FEFEFE"/>
<path fill-rule="evenodd" clip-rule="evenodd" d="M45.1481 9.46639C44.8249 9.46639 44.563 9.20446 44.563 8.88116V6.91554C44.563 6.59225 44.8249 6.33032 45.1481 6.33032C45.4714 6.33032 45.7332 6.59225 45.7332 6.91554V8.88116C45.7332 9.20446 45.4712 9.46639 45.1481 9.46639Z" fill="#FEFEFE"/>
<path fill-rule="evenodd" clip-rule="evenodd" d="M45.1481 23.0335C44.8249 23.0335 44.563 22.7716 44.563 22.4484V20.4825C44.563 20.1594 44.8249 19.8975 45.1481 19.8975C45.4714 19.8975 45.7332 20.1594 45.7332 20.4825V22.4484C45.7332 22.7716 45.4712 23.0335 45.1481 23.0335Z" fill="#FEFEFE"/>
<path fill-rule="evenodd" clip-rule="evenodd" d="M27.8526 15.267H1.51135C1.1882 15.267 0.92627 15.0052 0.92627 14.6819C0.92627 14.3587 1.18819 14.0968 1.51135 14.0968H27.8526C28.1759 14.0968 28.4379 14.3587 28.4379 14.6819C28.4379 15.0052 28.1759 15.267 27.8526 15.267Z" fill="#FEFEFE"/>
<path fill-rule="evenodd" clip-rule="evenodd" d="M21.9602 18.7554C21.7602 18.7554 21.5653 18.6529 21.456 18.4682C21.2913 18.1901 21.3834 17.8313 21.6615 17.6667L26.7039 14.6818L21.6615 11.6974C21.3834 11.5328 21.2913 11.174 21.456 10.8957C21.6207 10.6178 21.9794 10.5257 22.2576 10.6903L28.1506 14.1783C28.3285 14.2836 28.4377 14.4751 28.4377 14.6818C28.4377 14.8886 28.3285 15.08 28.1506 15.1854L22.2576 18.6737C22.164 18.7292 22.0614 18.7554 21.9602 18.7554Z" fill="#FEFEFE"/>
<path fill-rule="evenodd" clip-rule="evenodd" d="M58.4038 35.9031H32.0621C31.739 35.9031 31.4771 35.6411 31.4771 35.318C31.4771 34.9948 31.739 34.7329 32.0621 34.7329H58.4038C58.7271 34.7329 58.9889 34.9947 58.9889 35.318C58.9889 35.6411 58.7271 35.9031 58.4038 35.9031Z" fill="#FEFEFE"/>
<path fill-rule="evenodd" clip-rule="evenodd" d="M37.955 39.3913C37.8536 39.3913 37.7509 39.365 37.6574 39.3096L31.7642 35.8214C31.5863 35.7162 31.4773 35.5246 31.4773 35.3178C31.4773 35.1111 31.5865 34.9196 31.7642 34.8143L37.6574 31.3259C37.9353 31.1609 38.2944 31.2532 38.459 31.5315C38.6237 31.8095 38.5317 32.1684 38.2535 32.333L33.2111 35.3178L38.2535 38.3026C38.5317 38.4672 38.6237 38.8261 38.459 39.1042C38.3497 39.2887 38.155 39.3913 37.955 39.3913Z" fill="#FEFEFE"/>
</svg>
