<svg width="57" height="50" viewBox="0 0 57 50" fill="none" xmlns="http://www.w3.org/2000/svg">
<path fill-rule="evenodd" clip-rule="evenodd" d="M25.068 49.9999C18.3903 49.9999 12.1121 47.3997 7.39032 42.6776C2.66853 37.9557 0.0681152 31.6778 0.0681152 25.0001C0.0681152 18.3224 2.66853 12.0443 7.39032 7.32234C12.1121 2.60055 18.3903 0 25.068 0C32.7745 0 39.9339 3.47491 44.7107 9.53398C44.958 9.84738 44.9042 10.3018 44.5906 10.549C44.2771 10.7964 43.8228 10.7424 43.5756 10.429C39.0746 4.72011 32.3288 1.44561 25.068 1.44561C12.0801 1.44561 1.51358 12.0121 1.51358 25.0001C1.51358 37.9881 12.0801 48.5545 25.068 48.5545C37.8915 48.5545 48.4563 38.1242 48.6185 25.3037C48.6237 24.9045 48.9565 24.5843 49.3504 24.5902C49.7496 24.5952 50.069 24.9229 50.064 25.3221C49.9805 31.9323 47.3433 38.1334 42.6387 42.7831C37.9295 47.437 31.6894 49.9999 25.068 49.9999Z" fill="#FEFEFE"/>
<path fill-rule="evenodd" clip-rule="evenodd" d="M25.0643 33.3869C22.7278 33.3869 20.5465 32.4797 18.9226 30.8321C17.1134 28.9969 16.1572 26.4066 16.1572 23.3412V20.9732C16.1572 20.574 16.4807 20.2504 16.88 20.2504C17.2792 20.2504 17.6027 20.574 17.6027 20.9732V23.3412C17.6027 29.25 21.4706 31.9413 25.0643 31.9413C27.0162 31.9413 28.8325 31.1808 30.1783 29.8C31.7189 28.2194 32.5333 25.934 32.5333 23.1914V20.973C32.5333 20.5739 32.8569 20.2502 33.2561 20.2502C33.6553 20.2502 33.9788 20.5739 33.9788 20.973V23.1914C33.9788 26.3189 33.0226 28.9529 31.2136 30.809C29.5931 32.4715 27.4094 33.3869 25.0643 33.3869Z" fill="#FEFEFE"/>
<path fill-rule="evenodd" clip-rule="evenodd" d="M33.2557 21.6958C33.0263 21.6958 32.8072 21.5864 32.6697 21.3961L30.4279 18.291L23.7401 16.4996L18.8642 17.0233L17.5697 21.1876C17.4976 21.4199 17.3133 21.6003 17.0795 21.6676C16.8456 21.7348 16.5939 21.6799 16.4091 21.5219C14.7759 20.1224 13.6429 15.6824 14.6778 12.8842C15.3121 11.169 16.6813 10.2245 18.5327 10.2245C18.8921 10.2245 19.2747 10.2597 19.6731 10.3293C19.6962 10.3046 19.7196 10.2793 19.7405 10.2569C20.2678 9.68755 21.3652 8.50293 23.9387 8.50293C24.8341 8.50293 25.8514 8.64728 26.9621 8.93204C27.0878 8.96422 27.2271 9.00087 27.3777 9.0408C28.4382 9.32057 30.0406 9.74324 31.3259 9.74324C31.867 9.74324 32.5682 9.66535 32.837 9.2939C32.9986 9.07048 33.2736 8.95818 33.5449 9.0052C33.8167 9.05183 34.0384 9.24911 34.116 9.51365C34.1788 9.72722 35.6347 14.818 33.9541 21.1582C33.8825 21.4283 33.6617 21.6329 33.3869 21.6837C33.3433 21.6919 33.2993 21.6958 33.2557 21.6958ZM18.533 11.6701C17.2783 11.6701 16.4608 12.2312 16.0339 13.3855C15.3729 15.1727 15.8501 17.8252 16.6172 19.3824L17.625 16.1405C17.7105 15.8653 17.9514 15.6672 18.238 15.6365L23.7198 15.0478C23.8082 15.0381 23.8979 15.0452 23.9841 15.0683L31.0504 16.9611C31.211 17.0042 31.3521 17.1014 31.4494 17.2363L32.906 19.2535C33.6096 15.5581 33.238 12.4498 32.9543 10.9269C32.5069 11.1011 31.9633 11.1887 31.3264 11.1887C29.8536 11.1887 28.1419 10.737 27.0094 10.4382C26.8623 10.3994 26.7264 10.3636 26.6036 10.3322C25.6099 10.0775 24.7134 9.94837 23.9391 9.94837C21.997 9.94837 21.2485 10.7563 20.8012 11.239C20.5389 11.5222 20.2677 11.8149 19.8301 11.8149C19.7694 11.8149 19.7087 11.8086 19.6495 11.7963C19.2496 11.7125 18.8741 11.6701 18.533 11.6701Z" fill="#FEFEFE"/>
<path fill-rule="evenodd" clip-rule="evenodd" d="M9.10765 44.0157C9.0886 44.0157 9.06943 44.0149 9.05025 44.0133C8.65227 43.9821 8.35503 43.6341 8.38629 43.2362C8.74894 38.6214 12.6596 35.0065 17.2893 35.0065H21.1099C21.5092 35.0065 21.8327 35.33 21.8327 35.7291V36.6508C21.8327 38.4348 23.2841 39.8861 25.0683 39.8861C26.8524 39.8861 28.3039 38.4348 28.3039 36.6508V35.7291C28.3039 35.33 28.6274 35.0065 29.0267 35.0065H32.8472C37.4771 35.0065 41.3877 38.6213 41.7501 43.236C41.7813 43.634 41.484 43.9819 41.086 44.0132C40.6862 44.0443 40.3401 43.747 40.3088 43.3491C40.0051 39.4816 36.7276 36.4519 32.8472 36.4519H29.7495V36.6508C29.7495 39.2319 27.6495 41.3316 25.0684 41.3316C22.4872 41.3316 20.3871 39.2319 20.3871 36.6508V36.4519H17.2893C13.409 36.4519 10.1314 39.4817 9.82756 43.3492C9.79775 43.7282 9.48107 44.0157 9.10765 44.0157Z" fill="#FEFEFE"/>
<path fill-rule="evenodd" clip-rule="evenodd" d="M25.0682 41.3317C22.4869 41.3317 20.387 39.2319 20.387 36.6509V31.6144C20.387 31.2152 20.7106 30.8917 21.1098 30.8917C21.5091 30.8917 21.8326 31.2152 21.8326 31.6144V36.6505C21.8326 38.4347 23.284 39.8863 25.0679 39.8863C26.8521 39.8863 28.3034 38.4347 28.3034 36.6509V31.606C28.3034 31.2067 28.627 30.8832 29.0262 30.8832C29.4255 30.8832 29.749 31.2067 29.749 31.606V36.6509C29.7491 39.2319 27.6493 41.3317 25.0682 41.3317Z" fill="#FEFEFE"/>
<path fill-rule="evenodd" clip-rule="evenodd" d="M25.068 49.9996C24.6689 49.9996 24.3452 49.6761 24.3452 49.2769V40.6088C24.3452 40.2096 24.6689 39.8861 25.068 39.8861C25.4672 39.8861 25.7908 40.2096 25.7908 40.6088V49.2769C25.7908 49.6761 25.4672 49.9996 25.068 49.9996Z" fill="#FEFEFE"/>
<path fill-rule="evenodd" clip-rule="evenodd" d="M48.0647 26.1343C43.1376 26.1343 39.1294 22.1258 39.1294 17.1989C39.1294 12.2717 43.1377 8.26318 48.0647 8.26318C52.9919 8.26318 57.0003 12.2718 57.0003 17.1989C57.0003 22.1258 52.9918 26.1343 48.0647 26.1343ZM48.0647 9.7088C43.9347 9.7088 40.5749 13.0688 40.5749 17.1989C40.5749 21.3288 43.9349 24.6888 48.0647 24.6888C52.1948 24.6888 55.5548 21.3288 55.5548 17.1989C55.5548 13.0688 52.1946 9.7088 48.0647 9.7088Z" fill="#FEFEFE"/>
<path fill-rule="evenodd" clip-rule="evenodd" d="M46.5855 20.4853C46.4005 20.4853 46.2155 20.4148 46.0743 20.2737L43.9048 18.1043C43.6225 17.822 43.6225 17.3644 43.9048 17.0821C44.1871 16.7997 44.6447 16.7997 44.927 17.0821L46.5854 18.7405L51.2021 14.1237C51.4843 13.8413 51.942 13.8413 52.2242 14.1237C52.5065 14.4058 52.5065 14.8635 52.2242 15.1458L47.0964 20.2736C46.9555 20.4148 46.7704 20.4853 46.5855 20.4853Z" fill="#FEFEFE"/>
</svg>
