<svg width="36" height="32" viewBox="0 0 36 32" fill="none" xmlns="http://www.w3.org/2000/svg">
<path d="M30.3839 31.625H3.70536C1.66148 31.625 0 29.962 0 27.9196V4.20535C0 3.79628 0.332 3.46428 0.741072 3.46428C1.15014 3.46428 1.48214 3.79628 1.48214 4.20535V27.9196C1.48214 29.1454 2.47963 30.1429 3.70536 30.1429H30.3839C30.7915 30.1429 31.125 29.8109 31.125 29.4018V23.4732C31.125 23.0641 31.457 22.7321 31.8661 22.7321C32.2751 22.7321 32.6071 23.0641 32.6071 23.4732V29.4018C32.6071 30.6275 31.6097 31.625 30.3839 31.625Z" fill="#3962F1"/>
<path d="M31.8661 15.3214C31.457 15.3214 31.125 14.9894 31.125 14.5804V8.65179C31.125 8.24271 30.7915 7.91071 30.3839 7.91071H3.70536C1.66148 7.91071 0 6.24775 0 4.20536C0 2.16296 1.66148 0.5 3.70536 0.5H25.9375C27.1632 0.5 28.1607 1.49748 28.1607 2.72321V6.42857H30.3839C31.6097 6.42857 32.6071 7.42605 32.6071 8.65179V14.5804C32.6071 14.9894 32.2751 15.3214 31.8661 15.3214ZM3.70536 1.98214C2.47963 1.98214 1.48214 2.97962 1.48214 4.20536C1.48214 5.43109 2.47963 6.42857 3.70536 6.42857H26.6786V2.72321C26.6786 2.31414 26.3451 1.98214 25.9375 1.98214H3.70536Z" fill="#3962F1"/>
<path d="M34.8301 24.2143H27.4194C24.5589 24.2143 22.2319 21.8873 22.2319 19.0268C22.2319 16.1662 24.5589 13.8393 27.4194 13.8393H34.8301C35.2392 13.8393 35.5712 14.1713 35.5712 14.5804V23.4732C35.5712 23.8823 35.2392 24.2143 34.8301 24.2143ZM27.4194 15.3214C25.3756 15.3214 23.7141 16.9844 23.7141 19.0268C23.7141 21.0692 25.3756 22.7321 27.4194 22.7321H34.0891V15.3214H27.4194Z" fill="#3962F1"/>
<path d="M27.4195 21.25C26.1938 21.25 25.1963 20.2525 25.1963 19.0268C25.1963 17.8011 26.1938 16.8036 27.4195 16.8036C28.6452 16.8036 29.6427 17.8011 29.6427 19.0268C29.6427 20.2525 28.6452 21.25 27.4195 21.25ZM27.4195 18.2857C27.0119 18.2857 26.6784 18.6177 26.6784 19.0268C26.6784 19.4359 27.0119 19.7679 27.4195 19.7679C27.8271 19.7679 28.1606 19.4359 28.1606 19.0268C28.1606 18.6177 27.8271 18.2857 27.4195 18.2857Z" fill="#3962F1"/>
</svg>
