<svg width="36" height="36" viewBox="0 0 36 36" fill="none" xmlns="http://www.w3.org/2000/svg">
<path d="M0.937679 7.56874L17.5627 0.568567C17.6702 0.523312 17.7856 0.5 17.9023 0.5C18.019 0.5 18.1344 0.523312 18.242 0.568567L34.867 7.56874C35.0257 7.63561 35.1611 7.74778 35.2563 7.89123C35.3515 8.03467 35.4023 8.20301 35.4023 8.37518V27.625C35.4023 27.7972 35.3515 27.9656 35.2563 28.109C35.1611 28.2525 35.0257 28.3647 34.867 28.4316L18.242 35.4316C18.1345 35.4768 18.019 35.5 17.9024 35.5C17.7857 35.5 17.6703 35.4768 17.5627 35.4316L0.937679 28.4317C0.779022 28.3648 0.643616 28.2526 0.548397 28.1091C0.453182 27.9656 0.402378 27.7973 0.402344 27.6251V8.37518C0.402367 8.20301 0.453167 8.03467 0.548389 7.89123C0.643612 7.74778 0.779022 7.63561 0.937679 7.56874ZM17.9023 14.4258L24.4562 11.6663L10.1739 5.65275C10.1477 5.64011 10.1221 5.62615 10.0972 5.61091L3.53225 8.37535L17.9023 14.4258ZM17.9023 2.32452L12.3406 4.66625L26.5545 10.6509C26.6021 10.6716 26.6478 10.6965 26.6909 10.7253L32.2724 8.37518L17.9023 2.32452ZM33.6524 9.69301L18.7774 15.9561V33.307L33.6524 27.044V9.69301ZM17.0273 33.307V15.9561L2.15232 9.69301V27.044L17.0273 33.307Z" fill="currentColor"/>
</svg>
