<svg width="53" height="40" viewBox="0 0 53 40" fill="none" xmlns="http://www.w3.org/2000/svg">
<path d="M5.47755 40C4.71241 40 4.01495 39.6284 3.61495 39.0064C3.21904 38.3902 3.18418 37.6391 3.5206 36.9936L25.2256 1.13643C25.6051 0.424449 26.3333 0 27.1723 0C28.0112 0 28.7374 0.424449 29.1189 1.13643L50.8239 36.9936C51.1583 37.6391 51.1234 38.3902 50.7295 39.0044C50.3295 39.6264 49.6341 39.998 48.869 39.998L47.2895 39.9922C46.5079 39.9883 45.5972 39.245 44.7869 37.9501L27.1702 8.4088L9.65607 37.7897C8.41708 40 7.71758 40 7.03859 40H5.47549H5.47755Z" fill="#3962F1"/>
<path d="M19.5839 6.5425L17.2084 7.92539C15.0935 9.1557 13.2863 10.4056 11.6822 11.7376C6.89033 15.5753 2.77744 21.7757 4.38157 26.9767L4.42054 27.1097L1.6164 31.4775L1.35384 30.9904C0.888189 30.12 0.535359 29.1987 0.311766 28.2501C-1.81545 18.7674 7.29444 10.4154 16.9397 7.37575L19.5839 6.54054V6.5425Z" fill="#3962F1"/>
<path d="M52.7341 17.5394C52.529 23.1062 49.0233 28.5693 42.8714 32.9311C41.977 33.5649 41.0437 34.1614 40.0919 34.7091C38.2067 35.781 36.221 36.7003 34.1964 37.4573C29.7512 39.114 25.1644 39.9492 20.6987 39.9492C18.7951 39.9492 16.9161 39.7966 15.072 39.4915L14.3438 39.3761L17.1664 34.8206L17.3715 34.8382C22.1695 35.29 27.6752 34.4979 32.8692 32.6201C34.5369 32.0177 36.1144 31.3233 37.5585 30.5546C38.9062 29.8348 40.1719 29.0504 41.3329 28.2094C44.4694 25.9619 48.3525 22.2397 49.0561 17.3125C49.8746 10.7091 43.614 6.62305 37.4887 5.00936L34.6518 4.26022L37.5893 4.41278C41.6016 4.61424 45.3309 5.91107 48.0838 8.04897C51.1874 10.4607 52.7916 13.7448 52.7341 17.5394Z" fill="#3962F1"/>
</svg>
